<?xml version="1.0" encoding="UTF-8" standalone="yes"?><svg xmlns="http://www.w3.org/2000/svg" xmlns:xlink="http://www.w3.org/1999/xlink" height="332pt" style="width:372px;height:332px;" version="1.1" viewBox="0 0 372 332" width="372pt"><defs><filter height="300%" id="f1" width="300%" x="-1" y="-1"><feGaussianBlur result="blurOut" stdDeviation="2.0"/><feColorMatrix in="blurOut" result="blurOut2" type="matrix" values="0 0 0 0 0 0 0 0 0 0 0 0 0 0 0 0 0 0 .4 0"/><feOffset dx="4.0" dy="4.0" in="blurOut2" result="blurOut3"/><feBlend in="SourceGraphic" in2="blurOut3" mode="normal"/></filter></defs><g><ellipse cx="130.116" cy="18" fill="#000000" filter="url(#f1)" rx="10" ry="10" style="stroke: none; stroke-width: 1.0;"/><rect fill="#FEFECE" filter="url(#f1)" height="50" rx="12.5" ry="12.5" style="stroke: #A80036; stroke-width: 1.5;" width="140" x="60.1162" y="90"/><line style="stroke: #A80036; stroke-width: 1.5;" x1="60.1162" x2="200.1162" y1="117.6094" y2="117.6094"/><text fill="#000000" font-size="14" lengthAdjust="spacingAndGlyphs" textLength="120" x="70.1162" y="109">NewValueSelection</text><rect fill="#FEFECE" filter="url(#f1)" height="105.6094" rx="12.5" ry="12.5" style="stroke: #A80036; stroke-width: 1.5;" width="183.5" x="38.8662" y="220"/><rect fill="#FFFFFF" height="72" rx="12.5" ry="12.5" style="stroke: #FFFFFF; stroke-width: 1.0;" width="177.5" x="41.8662" y="250.6094"/><line style="stroke: #A80036; stroke-width: 1.5;" x1="38.8662" x2="222.3662" y1="247.6094" y2="247.6094"/><text fill="#000000" font-size="14" lengthAdjust="spacingAndGlyphs" textLength="111" x="75.1162" y="239">NewValuePreview</text><rect fill="#FEFECE" filter="url(#f1)" height="50" rx="12.5" ry="12.5" style="stroke: #A80036; stroke-width: 1.5;" width="61" x="49.8662" y="260.6094"/><line style="stroke: #A80036; stroke-width: 1.5;" x1="49.8662" x2="110.8662" y1="288.2188" y2="288.2188"/><text fill="#000000" font-size="14" lengthAdjust="spacingAndGlyphs" textLength="41" x="59.8662" y="279.6094">State1</text><rect fill="#FEFECE" filter="url(#f1)" height="50" rx="12.5" ry="12.5" style="stroke: #A80036; stroke-width: 1.5;" width="61" x="128.8662" y="260.6094"/><line style="stroke: #A80036; stroke-width: 1.5;" x1="128.8662" x2="189.8662" y1="288.2188" y2="288.2188"/><text fill="#000000" font-size="14" lengthAdjust="spacingAndGlyphs" textLength="41" x="138.8662" y="279.6094">State2</text><path d="M110.667,285.6094 C115.0198,285.6094 119.3727,285.6094 123.7256,285.6094 " fill="none" style="stroke: #A80036; stroke-width: 1.0;"/><polygon fill="#A80036" points="128.8354,285.6094,119.8354,281.6094,123.8354,285.6094,119.8354,289.6094,128.8354,285.6094" style="stroke: #A80036; stroke-width: 1.0;"/><path d="M130.116,28.109 C130.116,41.014 130.116,65.21 130.116,84.641 " fill="none" style="stroke: #A80036; stroke-width: 1.0;"/><polygon fill="#A80036" points="130.116,89.981,134.116,80.981,130.116,84.981,126.116,80.981,130.116,89.981" style="stroke: #A80036; stroke-width: 1.0;"/><path d="M60.0519,132.881 C41.3058,140.938 23.1935,152.749 12.1162,170 C-2.2086,192.309 11.6829,212.473 34.3033,228.8696 " fill="none" style="stroke: #A80036; stroke-width: 1.0;"/><polygon fill="#A80036" points="38.6238,231.8871,33.5357,223.4543,34.5246,229.0241,28.9549,230.013,38.6238,231.8871" style="stroke: #A80036; stroke-width: 1.0;"/><text fill="#000000" font-size="13" lengthAdjust="spacingAndGlyphs" textLength="72" x="13.1162" y="184.5">EvNewValue</text><path d="M127.435,219.849 C126.921,203.855 126.666,186.204 127.116,170 C127.336,162.069 127.738,153.49 128.177,145.556 " fill="none" style="stroke: #A80036; stroke-width: 1.0;"/><polygon fill="#A80036" points="128.486,140.181,123.9782,148.9377,128.2003,145.1728,131.9651,149.3949,128.486,140.181" style="stroke: #A80036; stroke-width: 1.0;"/><text fill="#000000" font-size="13" lengthAdjust="spacingAndGlyphs" textLength="123" x="128.116" y="184.5">EvNewValueRejected</text><path d="M221.639,236.7944 C252.267,219.446 274.668,196.535 257.116,170 C245.063,151.778 225.482,139.685 205.266,131.668 " fill="none" style="stroke: #A80036; stroke-width: 1.0;"/><polygon fill="#A80036" points="200.396,129.818,207.3881,136.7541,205.0699,131.5941,210.2299,129.2759,200.396,129.818" style="stroke: #A80036; stroke-width: 1.0;"/><text fill="#000000" font-size="13" lengthAdjust="spacingAndGlyphs" textLength="107" x="264.116" y="184.5">EvNewValueSaved</text></g></svg>